<svg width="64" height="64" viewBox="0 0 64 64" fill="none" xmlns="http://www.w3.org/2000/svg">
<g clip-path="url(#clip0)">
<g clip-path="url(#clip1)">
<path d="M31 13.0002C31 13.2655 31.1054 13.5198 31.2929 13.7074C31.4804 13.8949 31.7348 14.0002 32 14.0002C32.2652 14.0002 32.5196 13.8949 32.7071 13.7074C32.8946 13.5198 33 13.2655 33 13.0002C33 12.735 32.8946 12.4807 32.7071 12.2931C32.5196 12.1056 32.2652 12.0002 32 12.0002C31.7348 12.0002 31.4804 12.1056 31.2929 12.2931C31.1054 12.4807 31 12.735 31 13.0002Z" fill="#63C5F1"/>
<path d="M36 14.0002C36.2652 14.0002 36.5196 13.8949 36.7071 13.7074C36.8946 13.5198 37 13.2655 37 13.0002C37 12.735 36.8946 12.4807 36.7071 12.2931C36.5196 12.1056 36.2652 12.0002 36 12.0002C35.7348 12.0002 35.4804 12.1056 35.2929 12.2931C35.1054 12.4807 35 12.735 35 13.0002C35 13.2655 35.1054 13.5198 35.2929 13.7074C35.4804 13.8949 35.7348 14.0002 36 14.0002Z" fill="#63C5F1"/>
<path d="M28 12.0002C27.7348 12.0002 27.4804 12.1056 27.2929 12.2931C27.1054 12.4807 27 12.735 27 13.0002C27 13.2655 27.1054 13.5198 27.2929 13.7074C27.4804 13.8949 27.7348 14.0002 28 14.0002C28.2652 14.0002 28.5196 13.8949 28.7071 13.7074C28.8946 13.5198 29 13.2655 29 13.0002C29 12.735 28.8946 12.4807 28.7071 12.2931C28.5196 12.1056 28.2652 12.0002 28 12.0002Z" fill="#63C5F1"/>
<path d="M32 20.0002C31.7348 20.0002 31.4804 20.1056 31.2929 20.2931C31.1054 20.4807 31 20.735 31 21.0002C31 21.2655 31.1054 21.5198 31.2929 21.7074C31.4804 21.8949 31.7348 22.0002 32 22.0002C32.2652 22.0002 32.5196 21.8949 32.7071 21.7074C32.8946 21.5198 33 21.2655 33 21.0002C33 20.735 32.8946 20.4807 32.7071 20.2931C32.5196 20.1056 32.2652 20.0002 32 20.0002Z" fill="#63C5F1"/>
<path d="M36 20.0002C35.7348 20.0002 35.4804 20.1056 35.2929 20.2931C35.1054 20.4807 35 20.735 35 21.0002C35 21.2655 35.1054 21.5198 35.2929 21.7074C35.4804 21.8949 35.7348 22.0002 36 22.0002C36.2652 22.0002 36.5196 21.8949 36.7071 21.7074C36.8946 21.5198 37 21.2655 37 21.0002C37 20.735 36.8946 20.4807 36.7071 20.2931C36.5196 20.1056 36.2652 20.0002 36 20.0002Z" fill="#63C5F1"/>
<path d="M28 20.0002C27.7348 20.0002 27.4804 20.1056 27.2929 20.2931C27.1054 20.4807 27 20.735 27 21.0002C27 21.2655 27.1054 21.5198 27.2929 21.7074C27.4804 21.8949 27.7348 22.0002 28 22.0002C28.2652 22.0002 28.5196 21.8949 28.7071 21.7074C28.8946 21.5198 29 21.2655 29 21.0002C29 20.735 28.8946 20.4807 28.7071 20.2931C28.5196 20.1056 28.2652 20.0002 28 20.0002Z" fill="#63C5F1"/>
<path d="M31 29.0002C31 29.2655 31.1054 29.5198 31.2929 29.7074C31.4804 29.8949 31.7348 30.0002 32 30.0002C32.2652 30.0002 32.5196 29.8949 32.7071 29.7074C32.8946 29.5198 33 29.2655 33 29.0002C33 28.735 32.8946 28.4807 32.7071 28.2931C32.5196 28.1056 32.2652 28.0002 32 28.0002C31.7348 28.0002 31.4804 28.1056 31.2929 28.2931C31.1054 28.4807 31 28.735 31 29.0002Z" fill="#63C5F1"/>
<path d="M36 30.0002C36.2652 30.0002 36.5196 29.8949 36.7071 29.7074C36.8946 29.5198 37 29.2655 37 29.0002C37 28.735 36.8946 28.4807 36.7071 28.2931C36.5196 28.1056 36.2652 28.0002 36 28.0002C35.7348 28.0002 35.4804 28.1056 35.2929 28.2931C35.1054 28.4807 35 28.735 35 29.0002C35 29.2655 35.1054 29.5198 35.2929 29.7074C35.4804 29.8949 35.7348 30.0002 36 30.0002Z" fill="#63C5F1"/>
<path d="M28 28.0002C27.7348 28.0002 27.4804 28.1056 27.2929 28.2931C27.1054 28.4807 27 28.735 27 29.0002C27 29.2655 27.1054 29.5198 27.2929 29.7074C27.4804 29.8949 27.7348 30.0002 28 30.0002C28.2652 30.0002 28.5196 29.8949 28.7071 29.7074C28.8946 29.5198 29 29.2655 29 29.0002C29 28.735 28.8946 28.4807 28.7071 28.2931C28.5196 28.1056 28.2652 28.0002 28 28.0002Z" fill="#63C5F1"/>
<path d="M61 54.0003H60V18.0003C60 16.9394 59.5786 15.922 58.8284 15.1719C58.0783 14.4217 57.0609 14.0003 56 14.0003H49V5.00028C49 -1.64972 15 -1.65972 15 5.00028V14.0003H8C6.93913 14.0003 5.92172 14.4217 5.17157 15.1719C4.42143 15.922 4 16.9394 4 18.0003V54.0003H3C2.20435 54.0003 1.44129 54.3164 0.87868 54.879C0.31607 55.4416 0 56.2046 0 57.0003L0 59.0003C0 60.3264 0.526784 61.5981 1.46447 62.5358C2.40215 63.4735 3.67392 64.0003 5 64.0003H59C60.3261 64.0003 61.5979 63.4735 62.5355 62.5358C63.4732 61.5981 64 60.3264 64 59.0003V57.0003C64 56.2046 63.6839 55.4416 63.1213 54.879C62.5587 54.3164 61.7957 54.0003 61 54.0003ZM47 29.0003C47 29.8703 41.74 32.0003 32 32.0003C22.26 32.0003 17 29.8703 17 29.0003V23.5403C23 26.7903 41 26.8003 47 23.5403V29.0003ZM32 43.0003C32.2652 43.0003 32.5196 43.1056 32.7071 43.2932C32.8946 43.4807 33 43.7351 33 44.0003C33 44.2655 32.8946 44.5199 32.7071 44.7074C32.5196 44.8949 32.2652 45.0003 32 45.0003C31.7348 45.0003 31.4804 44.8949 31.2929 44.7074C31.1054 44.5199 31 44.2655 31 44.0003C31 43.7351 31.1054 43.4807 31.2929 43.2932C31.4804 43.1056 31.7348 43.0003 32 43.0003ZM47 21.0003C47 21.8703 41.74 24.0003 32 24.0003C22.26 24.0003 17 21.8703 17 21.0003V15.5403C23 18.7903 41 18.8003 47 15.5403V21.0003ZM47 13.0003C47 13.8703 41.74 16.0003 32 16.0003C22.26 16.0003 17 13.8703 17 13.0003V7.54028C23 10.7903 41 10.8003 47 7.54028V13.0003ZM15 29.0003C15 31.8103 20.63 33.1503 26 33.6903V37.0003H16C15.7348 37.0003 15.4804 37.1056 15.2929 37.2932C15.1054 37.4807 15 37.7351 15 38.0003V41.1803C14.3328 41.4162 13.7704 41.8803 13.4124 42.4908C13.0543 43.1012 12.9235 43.8185 13.0432 44.516C13.1629 45.2135 13.5253 45.8462 14.0663 46.3024C14.6074 46.7585 15.2923 47.0087 16 47.0087C16.7077 47.0087 17.3926 46.7585 17.9337 46.3024C18.4747 45.8462 18.8371 45.2135 18.9568 44.516C19.0765 43.8185 18.9457 43.1012 18.5876 42.4908C18.2296 41.8803 17.6672 41.4162 17 41.1803V39.0003H27C27.2652 39.0003 27.5196 38.8949 27.7071 38.7074C27.8946 38.5199 28 38.2655 28 38.0003V33.8603C29.06 33.9303 30.07 33.9703 31 33.9903V41.1803C30.3328 41.4162 29.7704 41.8803 29.4124 42.4908C29.0543 43.1012 28.9235 43.8185 29.0432 44.516C29.1629 45.2135 29.5253 45.8462 30.0663 46.3024C30.6074 46.7585 31.2923 47.0087 32 47.0087C32.7077 47.0087 33.3926 46.7585 33.9337 46.3024C34.4747 45.8462 34.8371 45.2135 34.9568 44.516C35.0765 43.8185 34.9457 43.1012 34.5876 42.4908C34.2296 41.8803 33.6672 41.4162 33 41.1803V34.0003C33.93 34.0003 34.94 33.9403 36 33.8703V38.0003C36 38.2655 36.1054 38.5199 36.2929 38.7074C36.4804 38.8949 36.7348 39.0003 37 39.0003H47V41.1803C46.3328 41.4162 45.7704 41.8803 45.4124 42.4908C45.0543 43.1012 44.9235 43.8185 45.0432 44.516C45.1629 45.2135 45.5253 45.8462 46.0663 46.3024C46.6074 46.7585 47.2923 47.0087 48 47.0087C48.7077 47.0087 49.3926 46.7585 49.9337 46.3024C50.4747 45.8462 50.8371 45.2135 50.9568 44.516C51.0765 43.8185 50.9457 43.1012 50.5876 42.4908C50.2296 41.8803 49.6672 41.4162 49 41.1803V38.0003C49 37.7351 48.8946 37.4807 48.7071 37.2932C48.5196 37.1056 48.2652 37.0003 48 37.0003H38V33.6903C43.37 33.1503 49 31.8103 49 29.0003V20.0003H54V50.0003H10V20.0003H15V29.0003ZM16 43.0003C16.2652 43.0003 16.5196 43.1056 16.7071 43.2932C16.8946 43.4807 17 43.7351 17 44.0003C17 44.2655 16.8946 44.5199 16.7071 44.7074C16.5196 44.8949 16.2652 45.0003 16 45.0003C15.7348 45.0003 15.4804 44.8949 15.2929 44.7074C15.1054 44.5199 15 44.2655 15 44.0003C15 43.7351 15.1054 43.4807 15.2929 43.2932C15.4804 43.1056 15.7348 43.0003 16 43.0003ZM48 43.0003C48.2652 43.0003 48.5196 43.1056 48.7071 43.2932C48.8946 43.4807 49 43.7351 49 44.0003C49 44.2655 48.8946 44.5199 48.7071 44.7074C48.5196 44.8949 48.2652 45.0003 48 45.0003C47.7348 45.0003 47.4804 44.8949 47.2929 44.7074C47.1054 44.5199 47 44.2655 47 44.0003C47 43.7351 47.1054 43.4807 47.2929 43.2932C47.4804 43.1056 47.7348 43.0003 48 43.0003ZM32 2.00028C41.74 2.00028 47 4.13028 47 5.00028C47 5.87028 41.74 8.00028 32 8.00028C22.26 8.00028 17 5.87028 17 5.00028C17 4.13028 22.26 2.00028 32 2.00028ZM6 18.0003C6 17.4699 6.21071 16.9611 6.58579 16.5861C6.96086 16.211 7.46957 16.0003 8 16.0003H15V18.0003H9C8.73478 18.0003 8.48043 18.1056 8.29289 18.2932C8.10536 18.4807 8 18.7351 8 19.0003V51.0003C8 51.2655 8.10536 51.5199 8.29289 51.7074C8.48043 51.8949 8.73478 52.0003 9 52.0003H55C55.2652 52.0003 55.5196 51.8949 55.7071 51.7074C55.8946 51.5199 56 51.2655 56 51.0003V19.0003C56 18.7351 55.8946 18.4807 55.7071 18.2932C55.5196 18.1056 55.2652 18.0003 55 18.0003H49V16.0003H56C56.5304 16.0003 57.0391 16.211 57.4142 16.5861C57.7893 16.9611 58 17.4699 58 18.0003V54.0003H6V18.0003ZM40.13 56.0003L39.46 57.0003H24.54L23.87 56.0003H40.13ZM62 59.0003C62 59.7959 61.6839 60.559 61.1213 61.1216C60.5587 61.6842 59.7957 62.0003 59 62.0003H5C4.20435 62.0003 3.44129 61.6842 2.87868 61.1216C2.31607 60.559 2 59.7959 2 59.0003V57.0003C2 56.7351 2.10536 56.4807 2.29289 56.2932C2.48043 56.1056 2.73478 56.0003 3 56.0003H21.46L23.17 58.5503C23.59 59.1903 22.76 59.0003 40 59.0003C40.69 59.0003 40.74 58.7003 42.54 56.0003H61C61.2652 56.0003 61.5196 56.1056 61.7071 56.2932C61.8946 56.4807 62 56.7351 62 57.0003V59.0003Z" fill="#63C5F1"/>
</g>
</g>
<defs>
<clipPath id="clip0">
<rect width="64" height="64" fill="white" transform="translate(0 0.000244141)"/>
</clipPath>
<clipPath id="clip1">
<rect width="64" height="64" fill="white" transform="translate(0 0.000244141)"/>
</clipPath>
</defs>
</svg>
