<svg width="64" height="66" viewBox="0 0 64 66" fill="none" xmlns="http://www.w3.org/2000/svg">
<path d="M63 12.2402H12V1.02024C12 0.749718 11.8946 0.490279 11.7071 0.298993C11.5196 0.107707 11.2652 0.000244141 11 0.000244141L7 0.000244141C5.14348 0.000244141 3.36301 0.752487 2.05025 2.09149C0.737498 3.43049 0 5.24656 0 7.14019L0 58.1398C0 60.0335 0.737498 61.8495 2.05025 63.1885C3.36301 64.5275 5.14348 65.2798 7 65.2798H63C63.2652 65.2798 63.5196 65.1723 63.7071 64.981C63.8946 64.7897 64 64.5303 64 64.2598V13.2602C64 12.9896 63.8946 12.7302 63.7071 12.5389C63.5196 12.3476 63.2652 12.2402 63 12.2402ZM2 7.14019C2 5.7876 2.52678 4.4904 3.46447 3.53397C4.40215 2.57755 5.67392 2.04023 7 2.04023H10V50.9999C6.73 50.9999 4.41 50.6531 2 53.1521V7.14019ZM62 63.2398H7C6.01065 63.2396 5.04359 62.94 4.22124 62.379C3.39888 61.8179 2.75819 61.0206 2.38025 60.088C2.00232 59.1554 1.90413 58.1294 2.09811 57.1399C2.2921 56.1503 2.76954 55.2417 3.47 54.5291C6.58 51.3263 12 54.5291 12 52.0199V14.2801H62V63.2398Z" fill="#63C5F1"/>
<path d="M61 0.000252017H23C22.68 0.000252017 22.88 -0.0609479 19.39 1.72405C16.54 3.17245 16 3.23365 16 4.08025C16 4.92685 16.53 4.97785 19.39 6.43646C22.9 8.23166 22.68 8.16026 23 8.16026H61C61.7957 8.16026 62.5587 7.83786 63.1213 7.264C63.6839 6.69014 64 5.91182 64 5.10026V3.06025C64 2.24869 63.6839 1.47037 63.1213 0.896506C62.5587 0.322644 61.7957 0.000252017 61 0.000252017ZM51 2.04025V6.12026H24.72C25.0903 4.78648 25.0903 3.37403 24.72 2.04025H51ZM21 4.95745C21.07 4.37483 21.07 3.78567 21 3.20305L22.77 2.30545C23.1452 3.45771 23.1452 4.7028 22.77 5.85505L21 4.95745ZM53 2.04025H55V6.12026H53V2.04025ZM62 5.10026C62 5.37078 61.8946 5.63022 61.7071 5.8215C61.5196 6.01279 61.2652 6.12026 61 6.12026H57V2.04025H61C61.2652 2.04025 61.5196 2.14772 61.7071 2.339C61.8946 2.53029 62 2.78973 62 3.06025V5.10026Z" fill="#63C5F1"/>
<path d="M17 29.5801H23V38.76C23 39.0305 23.1054 39.29 23.2929 39.4813C23.4804 39.6725 23.7348 39.78 24 39.78H36V53.0399C36 53.3104 36.1054 53.5699 36.2929 53.7612C36.4804 53.9525 36.7348 54.0599 37 54.0599H42V57.1199C42 57.3904 42.1054 57.6499 42.2929 57.8411C42.4804 58.0324 42.7348 58.1399 43 58.1399H57C57.2652 58.1399 57.5196 58.0324 57.7071 57.8411C57.8946 57.6499 58 57.3904 58 57.1199V48.9599C58 48.6894 57.8946 48.43 57.7071 48.2387C57.5196 48.0474 57.2652 47.94 57 47.94H43C42.7348 47.94 42.4804 48.0474 42.2929 48.2387C42.1054 48.43 42 48.6894 42 48.9599V52.0199H38V39.78H42V42.84C42 43.1105 42.1054 43.3699 42.2929 43.5612C42.4804 43.7525 42.7348 43.86 43 43.86H57C57.2652 43.86 57.5196 43.7525 57.7071 43.5612C57.8946 43.3699 58 43.1105 58 42.84V34.68C58 34.4095 57.8946 34.1501 57.7071 33.9588C57.5196 33.7675 57.2652 33.66 57 33.66H43C42.7348 33.66 42.4804 33.7675 42.2929 33.9588C42.1054 34.1501 42 34.4095 42 34.68V37.74H38V25.5001H42V28.5601C42 28.8306 42.1054 29.09 42.2929 29.2813C42.4804 29.4726 42.7348 29.5801 43 29.5801H57C57.2652 29.5801 57.5196 29.4726 57.7071 29.2813C57.8946 29.09 58 28.8306 58 28.5601V20.4001C58 20.1296 57.8946 19.8702 57.7071 19.6789C57.5196 19.4876 57.2652 19.3801 57 19.3801H43C42.7348 19.3801 42.4804 19.4876 42.2929 19.6789C42.1054 19.8702 42 20.1296 42 20.4001V23.4601H37C36.7348 23.4601 36.4804 23.5676 36.2929 23.7589C36.1054 23.9501 36 24.2096 36 24.4801V37.74H25V29.5801H31C31.2652 29.5801 31.5196 29.4726 31.7071 29.2813C31.8946 29.09 32 28.8306 32 28.5601V20.4001C32 20.1296 31.8946 19.8702 31.7071 19.6789C31.5196 19.4876 31.2652 19.3801 31 19.3801H17C16.7348 19.3801 16.4804 19.4876 16.2929 19.6789C16.1054 19.8702 16 20.1296 16 20.4001V28.5601C16 28.8306 16.1054 29.09 16.2929 29.2813C16.4804 29.4726 16.7348 29.5801 17 29.5801ZM44 49.9799H56V56.0999H44V49.9799ZM44 35.7H56V41.82H44V35.7ZM44 21.4201H56V27.5401H44V21.4201ZM18 21.4201H30V27.5401H18V21.4201Z" fill="#63C5F1"/>
<path d="M32 45.8999H21C20.7348 45.8999 20.4804 46.0074 20.2929 46.1986C20.1054 46.3899 20 46.6493 20 46.9198C20 47.1903 20.1054 47.4497 20.2929 47.641C20.4804 47.8322 20.7348 47.9397 21 47.9397H32C32.2652 47.9397 32.5196 47.8322 32.7071 47.641C32.8946 47.4497 33 47.1903 33 46.9198C33 46.6493 32.8946 46.3899 32.7071 46.1986C32.5196 46.0074 32.2652 45.8999 32 45.8999Z" fill="#63C5F1"/>
<path d="M32 51H21C20.7348 51 20.4804 51.1075 20.2929 51.2988C20.1054 51.49 20 51.7495 20 52.02C20 52.2905 20.1054 52.55 20.2929 52.7413C20.4804 52.9326 20.7348 53.04 21 53.04H32C32.2652 53.04 32.5196 52.9326 32.7071 52.7413C32.8946 52.55 33 52.2905 33 52.02C33 51.7495 32.8946 51.49 32.7071 51.2988C32.5196 51.1075 32.2652 51 32 51Z" fill="#63C5F1"/>
<path d="M32 56.0999H21C20.7348 56.0999 20.4804 56.2073 20.2929 56.3986C20.1054 56.5899 20 56.8493 20 57.1199C20 57.3904 20.1054 57.6498 20.2929 57.8411C20.4804 58.0324 20.7348 58.1399 21 58.1399H32C32.2652 58.1399 32.5196 58.0324 32.7071 57.8411C32.8946 57.6498 33 57.3904 33 57.1199C33 56.8493 32.8946 56.5899 32.7071 56.3986C32.5196 56.2073 32.2652 56.0999 32 56.0999Z" fill="#63C5F1"/>
<path d="M17 47.9397C17.2652 47.9397 17.5196 47.8322 17.7071 47.641C17.8946 47.4497 18 47.1903 18 46.9198C18 46.6493 17.8946 46.3899 17.7071 46.1986C17.5196 46.0074 17.2652 45.8999 17 45.8999C16.7348 45.8999 16.4804 46.0074 16.2929 46.1986C16.1054 46.3899 16 46.6493 16 46.9198C16 47.1903 16.1054 47.4497 16.2929 47.641C16.4804 47.8322 16.7348 47.9397 17 47.9397Z" fill="#63C5F1"/>
<path d="M17 53.04C17.2652 53.04 17.5196 52.9326 17.7071 52.7413C17.8946 52.55 18 52.2905 18 52.02C18 51.7495 17.8946 51.49 17.7071 51.2988C17.5196 51.1075 17.2652 51 17 51C16.7348 51 16.4804 51.1075 16.2929 51.2988C16.1054 51.49 16 51.7495 16 52.02C16 52.2905 16.1054 52.55 16.2929 52.7413C16.4804 52.9326 16.7348 53.04 17 53.04Z" fill="#63C5F1"/>
<path d="M17 58.1399C17.2652 58.1399 17.5196 58.0324 17.7071 57.8411C17.8946 57.6498 18 57.3904 18 57.1199C18 56.8493 17.8946 56.5899 17.7071 56.3986C17.5196 56.2073 17.2652 56.0999 17 56.0999C16.7348 56.0999 16.4804 56.2073 16.2929 56.3986C16.1054 56.5899 16 56.8493 16 57.1199C16 57.3904 16.1054 57.6498 16.2929 57.8411C16.4804 58.0324 16.7348 58.1399 17 58.1399Z" fill="#63C5F1"/>
</svg>
