<svg width="64" height="64" viewBox="0 0 64 64" fill="none" xmlns="http://www.w3.org/2000/svg">
<g clip-path="url(#clip0)">
<path d="M16 35.9999H27V38.9999H8.99999C8.73477 38.9999 8.48042 39.1053 8.29288 39.2928C8.10534 39.4804 7.99999 39.7347 7.99999 39.9999V43.9999C7.99999 44.2652 8.10534 44.5195 8.29288 44.7071C8.48042 44.8946 8.73477 44.9999 8.99999 44.9999C9.2652 44.9999 9.51956 44.8946 9.70709 44.7071C9.89463 44.5195 9.99999 44.2652 9.99999 43.9999V40.9999H28C28.2652 40.9999 28.5196 40.8946 28.7071 40.7071C28.8946 40.5195 29 40.2652 29 39.9999V35.9999H31V43.9999C31 44.2652 31.1053 44.5195 31.2929 44.7071C31.4804 44.8946 31.7348 44.9999 32 44.9999C32.2652 44.9999 32.5196 44.8946 32.7071 44.7071C32.8946 44.5195 33 44.2652 33 43.9999V35.9999H35V39.9999C35 40.2652 35.1053 40.5195 35.2929 40.7071C35.4804 40.8946 35.7348 40.9999 36 40.9999H54V43.9999C54 44.2652 54.1053 44.5195 54.2929 44.7071C54.4804 44.8946 54.7348 44.9999 55 44.9999C55.2652 44.9999 55.5196 44.8946 55.7071 44.7071C55.8946 44.5195 56 44.2652 56 43.9999V39.9999C56 39.7347 55.8946 39.4804 55.7071 39.2928C55.5196 39.1053 55.2652 38.9999 55 38.9999H37V35.9999H50C52.1204 35.9964 54.1715 35.2444 55.7916 33.8763C57.4117 32.5083 58.4968 30.6122 58.8554 28.5223C59.2141 26.4324 58.8234 24.283 57.7521 22.4531C56.6809 20.6232 54.9979 19.2303 53 18.5199C52.939 17.4633 52.669 16.4293 52.2056 15.4778C51.7421 14.5263 51.0945 13.6762 50.3002 12.9768C49.5059 12.2773 48.5807 11.7424 47.5782 11.4031C46.5757 11.0638 45.5158 10.9268 44.46 10.9999C43.5361 7.56026 41.4184 4.56156 38.4858 2.5404C35.5532 0.519231 31.9971 -0.392508 28.4539 -0.0316842C24.9106 0.329139 21.6113 1.93898 19.1463 4.50979C16.6814 7.0806 15.2116 10.4446 15 13.9999C12.0826 14.1326 9.33739 15.4187 7.36826 17.5753C5.39913 19.732 4.36738 22.5826 4.49999 25.4999C4.63259 28.4173 5.9187 31.1625 8.07536 33.1317C10.232 35.1008 13.0826 36.1326 16 35.9999ZM16 15.9999C16.2652 15.9999 16.5196 15.8946 16.7071 15.7071C16.8946 15.5195 17 15.2652 17 14.9999C17.0033 11.7869 18.1965 8.68887 20.3492 6.30359C22.5019 3.9183 25.4618 2.41475 28.6577 2.08298C31.8536 1.75121 35.0591 2.61474 37.6559 4.50697C40.2527 6.39921 42.0567 9.18607 42.72 12.3299C42.7731 12.5878 42.9257 12.8143 43.1447 12.9603C43.3638 13.1063 43.6316 13.1601 43.89 13.1099C44.7654 12.945 45.6665 12.9771 46.528 13.2038C47.3895 13.4305 48.1897 13.8462 48.8705 14.4208C49.5513 14.9953 50.0956 15.7142 50.4639 16.5252C50.8323 17.3363 51.0154 18.2193 51 19.1099C50.957 19.3582 51.0093 19.6136 51.1466 19.825C51.2838 20.0363 51.4957 20.1881 51.74 20.2499C53.3652 20.6955 54.7752 21.7125 55.7109 23.1141C56.6466 24.5156 57.0453 26.2077 56.8338 27.8796C56.6222 29.5515 55.8146 31.091 54.5592 32.2153C53.3038 33.3396 51.685 33.9733 50 33.9999H16C13.613 33.9999 11.3239 33.0517 9.63602 31.3639C7.9482 29.6761 6.99999 27.3869 6.99999 24.9999C6.99999 22.613 7.9482 20.3238 9.63602 18.636C11.3239 16.9482 13.613 15.9999 16 15.9999Z" fill="#63C5F1"/>
<path d="M40 46H24C23.7348 46 23.4804 46.1054 23.2929 46.2929C23.1054 46.4804 23 46.7348 23 47V59C23 59.2652 23.1054 59.5196 23.2929 59.7071C23.4804 59.8946 23.7348 60 24 60H29V62H28C27.7348 62 27.4804 62.1054 27.2929 62.2929C27.1054 62.4804 27 62.7348 27 63C27 63.2652 27.1054 63.5196 27.2929 63.7071C27.4804 63.8946 27.7348 64 28 64H36C36.2652 64 36.5196 63.8946 36.7071 63.7071C36.8946 63.5196 37 63.2652 37 63C37 62.7348 36.8946 62.4804 36.7071 62.2929C36.5196 62.1054 36.2652 62 36 62H35V60H40C40.2652 60 40.5196 59.8946 40.7071 59.7071C40.8946 59.5196 41 59.2652 41 59V47C41 46.7348 40.8946 46.4804 40.7071 46.2929C40.5196 46.1054 40.2652 46 40 46ZM33 62H31V60H33V62ZM39 58H25V48H39V58Z" fill="#63C5F1"/>
<path d="M63 46H47C46.7348 46 46.4804 46.1054 46.2929 46.2929C46.1054 46.4804 46 46.7348 46 47V59C46 59.2652 46.1054 59.5196 46.2929 59.7071C46.4804 59.8946 46.7348 60 47 60H52V62H51C50.7348 62 50.4804 62.1054 50.2929 62.2929C50.1054 62.4804 50 62.7348 50 63C50 63.2652 50.1054 63.5196 50.2929 63.7071C50.4804 63.8946 50.7348 64 51 64H59C59.2652 64 59.5196 63.8946 59.7071 63.7071C59.8946 63.5196 60 63.2652 60 63C60 62.7348 59.8946 62.4804 59.7071 62.2929C59.5196 62.1054 59.2652 62 59 62H58V60H63C63.2652 60 63.5196 59.8946 63.7071 59.7071C63.8946 59.5196 64 59.2652 64 59V47C64 46.7348 63.8946 46.4804 63.7071 46.2929C63.5196 46.1054 63.2652 46 63 46ZM56 62H54V60H56V62ZM62 58H48V48H62V58Z" fill="#63C5F1"/>
<path d="M17 46H1C0.734784 46 0.48043 46.1054 0.292893 46.2929C0.105357 46.4804 0 46.7348 0 47L0 59C0 59.2652 0.105357 59.5196 0.292893 59.7071C0.48043 59.8946 0.734784 60 1 60H6V62H5C4.73478 62 4.48043 62.1054 4.29289 62.2929C4.10536 62.4804 4 62.7348 4 63C4 63.2652 4.10536 63.5196 4.29289 63.7071C4.48043 63.8946 4.73478 64 5 64H13C13.2652 64 13.5196 63.8946 13.7071 63.7071C13.8946 63.5196 14 63.2652 14 63C14 62.7348 13.8946 62.4804 13.7071 62.2929C13.5196 62.1054 13.2652 62 13 62H12V60H17C17.2652 60 17.5196 59.8946 17.7071 59.7071C17.8946 59.5196 18 59.2652 18 59V47C18 46.7348 17.8946 46.4804 17.7071 46.2929C17.5196 46.1054 17.2652 46 17 46ZM10 62H8V60H10V62ZM16 58H2V48H16V58Z" fill="#63C5F1"/>
</g>
<defs>
<clipPath id="clip0">
<rect width="64" height="64" fill="white"/>
</clipPath>
</defs>
</svg>
