<svg width="64" height="64" viewBox="0 0 64 64" fill="none" xmlns="http://www.w3.org/2000/svg">
<g clip-path="url(#clip0)">
<path d="M63 4.00024H35V1.00024C35 0.735028 34.8946 0.480674 34.7071 0.293137C34.5196 0.105601 34.2652 0.000244141 34 0.000244141C33.7348 0.000244141 33.4804 0.105601 33.2929 0.293137C33.1054 0.480674 33 0.735028 33 1.00024V4.00024H1C0.734784 4.00024 0.48043 4.1056 0.292893 4.29314C0.105357 4.48067 0 4.73503 0 5.00024L0 59.0002C0 59.2655 0.105357 59.5198 0.292893 59.7074C0.48043 59.8949 0.734784 60.0002 1 60.0002H33V63.0002C33 63.2655 33.1054 63.5198 33.2929 63.7074C33.4804 63.8949 33.7348 64.0002 34 64.0002C34.2652 64.0002 34.5196 63.8949 34.7071 63.7074C34.8946 63.5198 35 63.2655 35 63.0002V60.0002H63C63.2652 60.0002 63.5196 59.8949 63.7071 59.7074C63.8946 59.5198 64 59.2655 64 59.0002V5.00024C64 4.73503 63.8946 4.48067 63.7071 4.29314C63.5196 4.1056 63.2652 4.00024 63 4.00024ZM62 6.00024V12.0002H35V6.00024H62ZM2 6.00024H33V12.0002H2V6.00024ZM2 58.0002V14.0002H33V58.0002H2ZM35 58.0002V14.0002H62V58.0002H35Z" fill="#63C5F1"/>
<path d="M6 8.00024C5.73478 8.00024 5.48043 8.1056 5.29289 8.29314C5.10536 8.48067 5 8.73503 5 9.00024C5 9.26546 5.10536 9.51981 5.29289 9.70735C5.48043 9.89489 5.73478 10.0002 6 10.0002C6.26522 10.0002 6.51957 9.89489 6.70711 9.70735C6.89464 9.51981 7 9.26546 7 9.00024C7 8.73503 6.89464 8.48067 6.70711 8.29314C6.51957 8.1056 6.26522 8.00024 6 8.00024Z" fill="#63C5F1"/>
<path d="M11 8.00024C10.7348 8.00024 10.4804 8.1056 10.2929 8.29314C10.1054 8.48067 10 8.73503 10 9.00024C10 9.26546 10.1054 9.51981 10.2929 9.70735C10.4804 9.89489 10.7348 10.0002 11 10.0002C11.2652 10.0002 11.5196 9.89489 11.7071 9.70735C11.8946 9.51981 12 9.26546 12 9.00024C12 8.73503 11.8946 8.48067 11.7071 8.29314C11.5196 8.1056 11.2652 8.00024 11 8.00024Z" fill="#63C5F1"/>
<path d="M16 8.00024C15.7348 8.00024 15.4804 8.1056 15.2929 8.29314C15.1054 8.48067 15 8.73503 15 9.00024C15 9.26546 15.1054 9.51981 15.2929 9.70735C15.4804 9.89489 15.7348 10.0002 16 10.0002C16.2652 10.0002 16.5196 9.89489 16.7071 9.70735C16.8946 9.51981 17 9.26546 17 9.00024C17 8.73503 16.8946 8.48067 16.7071 8.29314C16.5196 8.1056 16.2652 8.00024 16 8.00024Z" fill="#63C5F1"/>
<path d="M29 17.0002H6C5.73478 17.0002 5.48043 17.1056 5.29289 17.2931C5.10536 17.4807 5 17.735 5 18.0002V27.0002C5 27.2655 5.10536 27.5198 5.29289 27.7074C5.48043 27.8949 5.73478 28.0002 6 28.0002H29C29.2652 28.0002 29.5196 27.8949 29.7071 27.7074C29.8946 27.5198 30 27.2655 30 27.0002V18.0002C30 17.735 29.8946 17.4807 29.7071 17.2931C29.5196 17.1056 29.2652 17.0002 29 17.0002ZM28 26.0002H7V19.0002H28V26.0002Z" fill="#63C5F1"/>
<path d="M26.5 31.0002C25.8078 31.0002 25.1311 31.2055 24.5555 31.5901C23.9799 31.9747 23.5313 32.5213 23.2664 33.1609C23.0015 33.8004 22.9322 34.5041 23.0673 35.1831C23.2023 35.862 23.5356 36.4856 24.0251 36.9751C24.5146 37.4646 25.1383 37.7979 25.8172 37.933C26.4961 38.068 27.1999 37.9987 27.8394 37.7338C28.4789 37.4689 29.0256 37.0203 29.4101 36.4447C29.7947 35.8692 30 35.1925 30 34.5002C30 33.572 29.6313 32.6817 28.9749 32.0254C28.3185 31.369 27.4283 31.0002 26.5 31.0002ZM26.5 36.0002C26.1022 36.0002 25.7206 35.8422 25.4393 35.5609C25.158 35.2796 25 34.8981 25 34.5002C25 34.1024 25.158 33.7209 25.4393 33.4396C25.7206 33.1583 26.1022 33.0002 26.5 33.0002C26.8978 33.0002 27.2794 33.1583 27.5607 33.4396C27.842 33.7209 28 34.1024 28 34.5002C28 34.8981 27.842 35.2796 27.5607 35.5609C27.2794 35.8422 26.8978 36.0002 26.5 36.0002Z" fill="#63C5F1"/>
<path d="M17.5 38.0002C18.1922 38.0002 18.8689 37.795 19.4445 37.4104C20.0201 37.0258 20.4687 36.4792 20.7336 35.8396C20.9985 35.2001 21.0678 34.4964 20.9327 33.8174C20.7977 33.1385 20.4644 32.5149 19.9749 32.0254C19.4854 31.5359 18.8617 31.2025 18.1828 31.0675C17.5039 30.9324 16.8001 31.0018 16.1606 31.2667C15.5211 31.5316 14.9744 31.9802 14.5899 32.5557C14.2053 33.1313 14 33.808 14 34.5002C14 35.4285 14.3687 36.3187 15.0251 36.9751C15.6815 37.6315 16.5717 38.0002 17.5 38.0002ZM17.5 33.0002C17.8978 33.0002 18.2794 33.1583 18.5607 33.4396C18.842 33.7209 19 34.1024 19 34.5002C19 34.8981 18.842 35.2796 18.5607 35.5609C18.2794 35.8422 17.8978 36.0002 17.5 36.0002C17.1022 36.0002 16.7206 35.8422 16.4393 35.5609C16.158 35.2796 16 34.8981 16 34.5002C16 34.1024 16.158 33.7209 16.4393 33.4396C16.7206 33.1583 17.1022 33.0002 17.5 33.0002Z" fill="#63C5F1"/>
<path d="M8.5 38.0002C9.19223 38.0002 9.86892 37.795 10.4445 37.4104C11.0201 37.0258 11.4687 36.4792 11.7336 35.8396C11.9985 35.2001 12.0678 34.4964 11.9327 33.8174C11.7977 33.1385 11.4644 32.5149 10.9749 32.0254C10.4854 31.5359 9.86175 31.2025 9.18282 31.0675C8.50388 30.9324 7.80015 31.0018 7.16061 31.2667C6.52107 31.5316 5.97444 31.9802 5.58986 32.5557C5.20527 33.1313 5 33.808 5 34.5002C5 35.4285 5.36875 36.3187 6.02513 36.9751C6.6815 37.6315 7.57174 38.0002 8.5 38.0002ZM8.5 33.0002C8.89782 33.0002 9.27936 33.1583 9.56066 33.4396C9.84196 33.7209 10 34.1024 10 34.5002C10 34.8981 9.84196 35.2796 9.56066 35.5609C9.27936 35.8422 8.89782 36.0002 8.5 36.0002C8.10218 36.0002 7.72064 35.8422 7.43934 35.5609C7.15804 35.2796 7 34.8981 7 34.5002C7 34.1024 7.15804 33.7209 7.43934 33.4396C7.72064 33.1583 8.10218 33.0002 8.5 33.0002Z" fill="#63C5F1"/>
<path d="M29 40.0002H24C23.7348 40.0002 23.4804 40.1056 23.2929 40.2931C23.1054 40.4807 23 40.735 23 41.0002C23 41.2655 23.1054 41.5198 23.2929 41.7074C23.4804 41.8949 23.7348 42.0002 24 42.0002H29C29.2652 42.0002 29.5196 41.8949 29.7071 41.7074C29.8946 41.5198 30 41.2655 30 41.0002C30 40.735 29.8946 40.4807 29.7071 40.2931C29.5196 40.1056 29.2652 40.0002 29 40.0002Z" fill="#63C5F1"/>
<path d="M29 44.0002H24C23.7348 44.0002 23.4804 44.1056 23.2929 44.2931C23.1054 44.4807 23 44.735 23 45.0002C23 45.2655 23.1054 45.5198 23.2929 45.7074C23.4804 45.8949 23.7348 46.0002 24 46.0002H29C29.2652 46.0002 29.5196 45.8949 29.7071 45.7074C29.8946 45.5198 30 45.2655 30 45.0002C30 44.735 29.8946 44.4807 29.7071 44.2931C29.5196 44.1056 29.2652 44.0002 29 44.0002Z" fill="#63C5F1"/>
<path d="M15 42.0002H20C20.2652 42.0002 20.5196 41.8949 20.7071 41.7074C20.8946 41.5198 21 41.2655 21 41.0002C21 40.735 20.8946 40.4807 20.7071 40.2931C20.5196 40.1056 20.2652 40.0002 20 40.0002H15C14.7348 40.0002 14.4804 40.1056 14.2929 40.2931C14.1054 40.4807 14 40.735 14 41.0002C14 41.2655 14.1054 41.5198 14.2929 41.7074C14.4804 41.8949 14.7348 42.0002 15 42.0002Z" fill="#63C5F1"/>
<path d="M15 46.0002H20C20.2652 46.0002 20.5196 45.8949 20.7071 45.7074C20.8946 45.5198 21 45.2655 21 45.0002C21 44.735 20.8946 44.4807 20.7071 44.2931C20.5196 44.1056 20.2652 44.0002 20 44.0002H15C14.7348 44.0002 14.4804 44.1056 14.2929 44.2931C14.1054 44.4807 14 44.735 14 45.0002C14 45.2655 14.1054 45.5198 14.2929 45.7074C14.4804 45.8949 14.7348 46.0002 15 46.0002Z" fill="#63C5F1"/>
<path d="M6 42.0002H11C11.2652 42.0002 11.5196 41.8949 11.7071 41.7074C11.8946 41.5198 12 41.2655 12 41.0002C12 40.735 11.8946 40.4807 11.7071 40.2931C11.5196 40.1056 11.2652 40.0002 11 40.0002H6C5.73478 40.0002 5.48043 40.1056 5.29289 40.2931C5.10536 40.4807 5 40.735 5 41.0002C5 41.2655 5.10536 41.5198 5.29289 41.7074C5.48043 41.8949 5.73478 42.0002 6 42.0002Z" fill="#63C5F1"/>
<path d="M6 46.0002H11C11.2652 46.0002 11.5196 45.8949 11.7071 45.7074C11.8946 45.5198 12 45.2655 12 45.0002C12 44.735 11.8946 44.4807 11.7071 44.2931C11.5196 44.1056 11.2652 44.0002 11 44.0002H6C5.73478 44.0002 5.48043 44.1056 5.29289 44.2931C5.10536 44.4807 5 44.735 5 45.0002C5 45.2655 5.10536 45.5198 5.29289 45.7074C5.48043 45.8949 5.73478 46.0002 6 46.0002Z" fill="#63C5F1"/>
<path d="M29 49.0002H6C5.73478 49.0002 5.48043 49.1056 5.29289 49.2931C5.10536 49.4807 5 49.735 5 50.0002V54.0002C5 54.2655 5.10536 54.5198 5.29289 54.7074C5.48043 54.8949 5.73478 55.0002 6 55.0002H29C29.2652 55.0002 29.5196 54.8949 29.7071 54.7074C29.8946 54.5198 30 54.2655 30 54.0002V50.0002C30 49.735 29.8946 49.4807 29.7071 49.2931C29.5196 49.1056 29.2652 49.0002 29 49.0002ZM28 53.0002H7V51.0002H28V53.0002Z" fill="#63C5F1"/>
<path d="M41.29 26.7102C41.4783 26.8985 41.7337 27.0043 42 27.0043C42.2663 27.0043 42.5217 26.8985 42.71 26.7102C42.8983 26.5219 43.0041 26.2665 43.0041 26.0002C43.0041 25.7339 42.8983 25.4785 42.71 25.2902L39.41 22.0002L42.71 18.7102C42.8983 18.5219 43.0041 18.2665 43.0041 18.0002C43.0041 17.7339 42.8983 17.4785 42.71 17.2902C42.5217 17.1019 42.2663 16.9961 42 16.9961C41.7337 16.9961 41.4783 17.1019 41.29 17.2902L37.29 21.2902C37.1963 21.3831 37.1219 21.4937 37.0711 21.6156C37.0203 21.7375 36.9942 21.8682 36.9942 22.0002C36.9942 22.1322 37.0203 22.2629 37.0711 22.3848C37.1219 22.5066 37.1963 22.6172 37.29 22.7102L41.29 26.7102Z" fill="#63C5F1"/>
<path d="M55.71 17.2902C55.5217 17.1019 55.2663 16.9961 55 16.9961C54.7337 16.9961 54.4783 17.1019 54.29 17.2902C54.1017 17.4785 53.9959 17.7339 53.9959 18.0002C53.9959 18.2665 54.1017 18.5219 54.29 18.7102L57.59 22.0002L54.29 25.2902C54.149 25.4301 54.0528 25.6088 54.0137 25.8035C53.9747 25.9983 53.9945 26.2002 54.0706 26.3837C54.1468 26.5671 54.2759 26.7237 54.4414 26.8335C54.6069 26.9433 54.8014 27.0013 55 27.0002C55.56 27.0002 55.3 27.1202 59.71 22.7102C59.8037 22.6172 59.8781 22.5066 59.9289 22.3848C59.9797 22.2629 60.0058 22.1322 60.0058 22.0002C60.0058 21.8682 59.9797 21.7375 59.9289 21.6156C59.8781 21.4937 59.8037 21.3831 59.71 21.2902L55.71 17.2902Z" fill="#63C5F1"/>
<path d="M46.85 26.5302L51.85 18.5302C51.9906 18.3048 52.0358 18.0328 51.9758 17.774C51.9158 17.5152 51.7554 17.2908 51.53 17.1502C51.3046 17.0097 51.0325 16.9644 50.7737 17.0244C50.5149 17.0844 50.2906 17.2448 50.15 17.4702L45.15 25.4702C45.0094 25.6957 44.9642 25.9677 45.0242 26.2265C45.0842 26.4853 45.2446 26.7097 45.47 26.8502C45.6954 26.9908 45.9675 27.0361 46.2263 26.976C46.4851 26.916 46.7094 26.7557 46.85 26.5302Z" fill="#63C5F1"/>
<path d="M59 31.0002H38C37.7348 31.0002 37.4804 31.1056 37.2929 31.2931C37.1054 31.4807 37 31.735 37 32.0002C37 32.2655 37.1054 32.5198 37.2929 32.7074C37.4804 32.8949 37.7348 33.0002 38 33.0002H59C59.2652 33.0002 59.5196 32.8949 59.7071 32.7074C59.8946 32.5198 60 32.2655 60 32.0002C60 31.735 59.8946 31.4807 59.7071 31.2931C59.5196 31.1056 59.2652 31.0002 59 31.0002Z" fill="#63C5F1"/>
<path d="M38 38.0002H52C52.2652 38.0002 52.5196 37.8949 52.7071 37.7074C52.8946 37.5198 53 37.2655 53 37.0002C53 36.735 52.8946 36.4807 52.7071 36.2931C52.5196 36.1056 52.2652 36.0002 52 36.0002H38C37.7348 36.0002 37.4804 36.1056 37.2929 36.2931C37.1054 36.4807 37 36.735 37 37.0002C37 37.2655 37.1054 37.5198 37.2929 37.7074C37.4804 37.8949 37.7348 38.0002 38 38.0002Z" fill="#63C5F1"/>
<path d="M38 43.0002H56C56.2652 43.0002 56.5196 42.8949 56.7071 42.7074C56.8946 42.5198 57 42.2655 57 42.0002C57 41.735 56.8946 41.4807 56.7071 41.2931C56.5196 41.1056 56.2652 41.0002 56 41.0002H38C37.7348 41.0002 37.4804 41.1056 37.2929 41.2931C37.1054 41.4807 37 41.735 37 42.0002C37 42.2655 37.1054 42.5198 37.2929 42.7074C37.4804 42.8949 37.7348 43.0002 38 43.0002Z" fill="#63C5F1"/>
<path d="M59 46.0002H38C37.7348 46.0002 37.4804 46.1056 37.2929 46.2931C37.1054 46.4807 37 46.735 37 47.0002C37 47.2655 37.1054 47.5198 37.2929 47.7074C37.4804 47.8949 37.7348 48.0002 38 48.0002H59C59.2652 48.0002 59.5196 47.8949 59.7071 47.7074C59.8946 47.5198 60 47.2655 60 47.0002C60 46.735 59.8946 46.4807 59.7071 46.2931C59.5196 46.1056 59.2652 46.0002 59 46.0002Z" fill="#63C5F1"/>
<path d="M54 51.0002H38C37.7348 51.0002 37.4804 51.1056 37.2929 51.2931C37.1054 51.4807 37 51.735 37 52.0002C37 52.2655 37.1054 52.5198 37.2929 52.7074C37.4804 52.8949 37.7348 53.0002 38 53.0002H54C54.2652 53.0002 54.5196 52.8949 54.7071 52.7074C54.8946 52.5198 55 52.2655 55 52.0002C55 51.735 54.8946 51.4807 54.7071 51.2931C54.5196 51.1056 54.2652 51.0002 54 51.0002Z" fill="#63C5F1"/>
</g>
<defs>
<clipPath id="clip0">
<rect width="64" height="64" fill="white" transform="translate(0 0.000244141)"/>
</clipPath>
</defs>
</svg>
