<svg width="64" height="64" viewBox="0 0 64 64" fill="none" xmlns="http://www.w3.org/2000/svg">
<g clip-path="url(#clip0)">
<path d="M62.85 40.57L58.34 38C59.22 34.0686 59.22 29.9914 58.34 26.06L62.85 23.46C62.9638 23.3938 63.0633 23.3059 63.143 23.2011C63.2227 23.0964 63.2809 22.977 63.3144 22.8497C63.3478 22.7225 63.3558 22.5898 63.3379 22.4595C63.32 22.3291 63.2765 22.2035 63.21 22.09C55.62 8.94 56.21 9.65 55.61 9.5C55.01 9.35 55.21 9.39 50.33 12.21C47.3746 9.46814 43.846 7.41857 40 6.21V1C40 0.734784 39.8946 0.48043 39.7071 0.292893C39.5196 0.105357 39.2652 0 39 0L25 0C24.7348 0 24.4804 0.105357 24.2929 0.292893C24.1054 0.48043 24 0.734784 24 1V6.21C20.1541 7.41857 16.6254 9.46814 13.67 12.21L9.15 9.57C8.92039 9.43963 8.64853 9.40536 8.39374 9.47468C8.13895 9.54399 7.92192 9.71127 7.79 9.94C0.190003 23.09 0.530003 22.25 0.690003 22.82C0.850003 23.39 0.690003 23.18 5.69 26.03C4.79562 29.9688 4.78537 34.0568 5.66 38C0.740003 40.81 0.830003 40.64 0.690003 41.18C0.550003 41.72 0.190003 40.91 7.79 54.06C7.92192 54.2887 8.13895 54.456 8.39374 54.5253C8.64853 54.5946 8.92039 54.5604 9.15 54.43L13.67 51.82C16.6254 54.5619 20.1541 56.6114 24 57.82V63C24 63.2652 24.1054 63.5196 24.2929 63.7071C24.4804 63.8946 24.7348 64 25 64H39C39.2652 64 39.5196 63.8946 39.7071 63.7071C39.8946 63.5196 40 63.2652 40 63V57.79C43.846 56.5814 47.3746 54.5319 50.33 51.79C55.25 54.63 55.06 54.64 55.61 54.5C56.16 54.36 55.61 55.06 63.21 41.91C63.335 41.6835 63.3673 41.4173 63.3002 41.1674C63.2331 40.9175 63.0717 40.7034 62.85 40.57ZM55 52.2L50.7 49.71C50.511 49.6005 50.2914 49.556 50.0748 49.583C49.8581 49.6101 49.6562 49.7074 49.5 49.86C46.4948 52.8018 42.7981 54.9407 38.75 56.08C38.5431 56.1331 38.3587 56.2511 38.2237 56.4167C38.0888 56.5822 38.0104 56.7867 38 57V62H26V57C26.0083 56.7756 25.9408 56.5548 25.8084 56.3734C25.6759 56.192 25.4863 56.0605 25.27 56C21.2219 54.8607 17.5252 52.7218 14.52 49.78C14.3638 49.6274 14.1619 49.5301 13.9452 49.503C13.7286 49.476 13.509 49.5205 13.32 49.63L9 52.2L3 41.8L7.29 39.33C7.48041 39.2208 7.62959 39.0519 7.71453 38.8495C7.79947 38.6471 7.81545 38.4224 7.76 38.21C6.71998 34.1353 6.71998 29.8647 7.76 25.79C7.81545 25.5776 7.79947 25.3529 7.71453 25.1505C7.62959 24.9481 7.48041 24.7792 7.29 24.67L3 22.2L9 11.8L13.3 14.29C13.489 14.3995 13.7086 14.444 13.9252 14.417C14.1419 14.3899 14.3438 14.2926 14.5 14.14C17.5108 11.1953 21.2147 9.0562 25.27 7.92C25.4732 7.86324 25.6532 7.7437 25.7843 7.57845C25.9154 7.41321 25.9909 7.21074 26 7V2H38V7C37.9917 7.22445 38.0592 7.44515 38.1916 7.62656C38.3241 7.80797 38.5137 7.93951 38.73 8C42.7781 9.13927 46.4748 11.2782 49.48 14.22C49.6362 14.3726 49.8381 14.4699 50.0548 14.497C50.2714 14.524 50.491 14.4795 50.68 14.37L55 11.8L61 22.2C53.57 26.49 57 23.29 57 32C57 40.71 53.55 37.52 61 41.8L55 52.2Z" fill="#63C5F1"/>
<path d="M32 12C13.34 12 5 35.29 19 47.23C22.6184 50.3126 27.2165 52.0057 31.97 52.0057C36.7235 52.0057 41.3216 50.3126 44.94 47.23C59 35.29 50.66 12 32 12ZM33.91 49.9L33.07 40.75C35.25 39.75 34.8 37 32.77 37C31.09 37 30.33 36.86 29.77 37.84C29.6338 38.1064 29.5569 38.3991 29.5448 38.698C29.5326 38.997 29.5853 39.295 29.6994 39.5716C29.8134 39.8481 29.9861 40.0967 30.2054 40.3001C30.4248 40.5036 30.6856 40.6571 30.97 40.75L30.13 49.9C26.7552 49.5364 23.552 48.226 20.89 46.12L21.58 44C22.101 42.4556 22.9588 41.0463 24.0912 39.874C25.2235 38.7017 26.6023 37.7957 28.1277 37.2215C29.6532 36.6473 31.2871 36.4193 32.9115 36.5539C34.5358 36.6886 36.1099 37.1825 37.52 38C41.36 40.21 42.21 43.37 43.15 46.17C40.4848 48.2623 37.2808 49.5557 33.91 49.9ZM32 34.45C31.2222 34.454 30.4513 34.3043 29.7314 34.0097C29.0116 33.7151 28.357 33.2813 27.8051 32.7332C27.2533 32.185 26.8151 31.5334 26.5156 30.8155C26.2161 30.0977 26.0613 29.3278 26.06 28.55V26.82C26.06 26.0439 26.2129 25.2754 26.5099 24.5583C26.8069 23.8413 27.2422 23.1898 27.791 22.641C28.3398 22.0922 28.9913 21.6569 29.7083 21.3599C30.4254 21.0629 31.1939 20.91 31.97 20.91C32.7461 20.91 33.5146 21.0629 34.2317 21.3599C34.9487 21.6569 35.6002 22.0922 36.149 22.641C36.6978 23.1898 37.1331 23.8413 37.4301 24.5583C37.7271 25.2754 37.88 26.0439 37.88 26.82V28.55C37.8774 30.1105 37.2577 31.6067 36.1561 32.712C35.0545 33.8173 33.5605 34.4421 32 34.45ZM44.77 44.67C43.27 40.19 41.2 36.92 36.29 35.18C37.3985 34.4645 38.3103 33.483 38.9426 32.325C39.5748 31.1671 39.9074 29.8693 39.91 28.55V26.82C39.91 25.7812 39.7054 24.7527 39.3079 23.793C38.9104 22.8333 38.3277 21.9613 37.5932 21.2268C36.8587 20.4923 35.9867 19.9096 35.027 19.5121C34.0673 19.1146 33.0388 18.91 32 18.91C30.9612 18.91 29.9327 19.1146 28.973 19.5121C28.0133 19.9096 27.1413 20.4923 26.4068 21.2268C25.6723 21.9613 25.0896 22.8333 24.6921 23.793C24.2946 24.7527 24.09 25.7812 24.09 26.82V28.55C24.0926 29.8693 24.4252 31.1671 25.0574 32.325C25.6897 33.483 26.6016 34.4645 27.71 35.18C22.8 36.92 20.71 40.18 19.23 44.67C8.05 33.41 16 14 32 14C48 14 56 33.41 44.77 44.67Z" fill="#63C5F1"/>
</g>
<defs>
<clipPath id="clip0">
<rect width="64" height="64" fill="white"/>
</clipPath>
</defs>
</svg>
