<svg width="64" height="64" viewBox="0 0 64 64" fill="none" xmlns="http://www.w3.org/2000/svg">
<g clip-path="url(#clip0)">
<path d="M46 17.0002H18C17.7348 17.0002 17.4804 17.1056 17.2929 17.2931C17.1054 17.4807 17 17.735 17 18.0002V46.0002C17 46.2655 17.1054 46.5198 17.2929 46.7074C17.4804 46.8949 17.7348 47.0002 18 47.0002H46C46.2652 47.0002 46.5196 46.8949 46.7071 46.7074C46.8946 46.5198 47 46.2655 47 46.0002V18.0002C47 17.735 46.8946 17.4807 46.7071 17.2931C46.5196 17.1056 46.2652 17.0002 46 17.0002ZM45 45.0002H19V19.0002H45V45.0002Z" fill="#63C5F1"/>
<path d="M32 36.0002C32.7911 36.0002 33.5645 35.7657 34.2223 35.3261C34.8801 34.8866 35.3928 34.2619 35.6955 33.531C35.9983 32.8001 36.0775 31.9958 35.9231 31.2199C35.7688 30.444 35.3878 29.7312 34.8284 29.1718C34.269 28.6124 33.5563 28.2314 32.7804 28.0771C32.0044 27.9228 31.2002 28.002 30.4693 28.3047C29.7384 28.6075 29.1136 29.1202 28.6741 29.778C28.2346 30.4358 28 31.2091 28 32.0002C28 33.0611 28.4214 34.0785 29.1716 34.8287C29.9217 35.5788 30.9391 36.0002 32 36.0002ZM32 30.0002C32.3956 30.0002 32.7822 30.1175 33.1111 30.3373C33.44 30.5571 33.6964 30.8694 33.8478 31.2349C33.9991 31.6003 34.0387 32.0025 33.9616 32.3904C33.8844 32.7784 33.6939 33.1348 33.4142 33.4145C33.1345 33.6942 32.7781 33.8846 32.3902 33.9618C32.0022 34.039 31.6001 33.9994 31.2346 33.848C30.8692 33.6966 30.5568 33.4403 30.3371 33.1114C30.1173 32.7825 30 32.3958 30 32.0002C30 31.4698 30.2107 30.9611 30.5858 30.586C30.9609 30.211 31.4696 30.0002 32 30.0002Z" fill="#63C5F1"/>
<path d="M57 30.0002C57.44 30.0002 57.49 29.8802 59.34 28.5002C59.8968 28.8701 60.5611 29.0434 61.2276 28.9927C61.8941 28.942 62.5245 28.6702 63.0189 28.2203C63.5133 27.7705 63.8434 27.1684 63.9566 26.5097C64.0699 25.8509 63.9599 25.1732 63.6441 24.5841C63.3284 23.995 62.8249 23.5282 62.2136 23.2578C61.6023 22.9874 60.9182 22.9289 60.2699 23.0915C59.6216 23.2542 59.0462 23.6287 58.6349 24.1557C58.2237 24.6826 58.0002 25.3318 58 26.0002C58 27.2802 58.74 26.4402 56.67 28.0002H51V24.0002C56.27 24.0002 56.44 24.1702 56.85 23.5302L60.35 17.9302C61.0399 18.0878 61.7633 17.9964 62.3924 17.6722C63.0214 17.348 63.5156 16.8119 63.7876 16.1585C64.0596 15.5052 64.0918 14.7768 63.8787 14.102C63.6655 13.4272 63.2207 12.8494 62.6228 12.4709C62.0249 12.0923 61.3124 11.9373 60.6113 12.0332C59.9101 12.1292 59.2655 12.4699 58.7912 12.9952C58.317 13.5205 58.0437 14.1965 58.0197 14.9037C57.9957 15.611 58.2225 16.304 58.66 16.8602L55.45 22.0002H51V18.0002C51 16.6741 50.4732 15.4024 49.5355 14.4647C48.5979 13.527 47.3261 13.0002 46 13.0002H42V9.00022H49C49.2652 9.00022 49.5196 8.89487 49.7071 8.70733C49.8946 8.51979 50 8.26544 50 8.00022V5.82022C50.6672 5.58433 51.2296 5.12015 51.5876 4.50974C51.9457 3.89933 52.0765 3.18198 51.9568 2.48449C51.8371 1.78699 51.4747 1.15426 50.9337 0.698117C50.3926 0.241975 49.7077 -0.00820479 49 -0.00820479C48.2923 -0.00820479 47.6074 0.241975 47.0663 0.698117C46.5253 1.15426 46.1629 1.78699 46.0432 2.48449C45.9235 3.18198 46.0543 3.89933 46.4124 4.50974C46.7704 5.12015 47.3328 5.58433 48 5.82022V7.00022H41C40.7348 7.00022 40.4804 7.10558 40.2929 7.29312C40.1054 7.48065 40 7.73501 40 8.00022V13.0002H36V7.33022L37.11 5.85022C37.7868 6.05683 38.5148 6.01758 39.1654 5.7394C39.816 5.46122 40.3474 4.96202 40.6655 4.33C40.9837 3.69799 41.0683 2.97384 40.9043 2.28553C40.7402 1.59721 40.3382 0.989019 39.7691 0.568432C39.2001 0.147844 38.5007 -0.0580708 37.7946 -0.0129286C37.0884 0.0322137 36.421 0.325507 35.9101 0.815128C35.3993 1.30475 35.0779 1.95918 35.0029 2.66278C34.9278 3.36638 35.1039 4.07387 35.5 4.66022C33.6 7.20022 34 5.43022 34 13.0002H30V7.00022C30 6.56022 29.88 6.51022 28.5 4.66022C28.8699 4.10346 29.0432 3.43912 28.9925 2.77263C28.9418 2.10614 28.6699 1.47568 28.2201 0.981276C27.7703 0.486876 27.1682 0.156863 26.5095 0.0436033C25.8507 -0.0696561 25.173 0.0403259 24.5839 0.356097C23.9947 0.671868 23.5279 1.17534 23.2576 1.78662C22.9872 2.39791 22.9286 3.08198 23.0913 3.7303C23.254 4.37862 23.6285 4.95405 24.1554 5.36528C24.6824 5.7765 25.3316 5.99997 26 6.00022C27.28 6.00022 26.44 5.26022 28 7.33022V13.0002H24C24 7.73022 24.17 7.56022 23.53 7.15022L17.93 3.65022C18.0876 2.96031 17.9962 2.23691 17.672 1.60786C17.3478 0.978817 16.8116 0.484631 16.1583 0.212646C15.505 -0.0593387 14.7766 -0.0916108 14.1017 0.121534C13.4269 0.334678 12.8492 0.779516 12.4706 1.37743C12.0921 1.97534 11.9371 2.68783 12.033 3.38897C12.129 4.09011 12.4697 4.73476 12.995 5.20899C13.5202 5.68321 14.1962 5.95648 14.9035 5.9805C15.6108 6.00451 16.3038 5.77773 16.86 5.34022L22 8.55022V13.0002H18C16.6739 13.0002 15.4021 13.527 14.4645 14.4647C13.5268 15.4024 13 16.6741 13 18.0002V22.0002H9V15.0002C9 14.735 8.89464 14.4807 8.70711 14.2931C8.51957 14.1056 8.26522 14.0002 8 14.0002H5.82C5.58411 13.333 5.11993 12.7707 4.50952 12.4126C3.89911 12.0545 3.18176 11.9238 2.48427 12.0434C1.78677 12.1631 1.15404 12.5255 0.697896 13.0666C0.241754 13.6076 -0.00842604 14.2925 -0.00842604 15.0002C-0.00842604 15.7079 0.241754 16.3928 0.697896 16.9339C1.15404 17.475 1.78677 17.8373 2.48427 17.957C3.18176 18.0767 3.89911 17.9459 4.50952 17.5879C5.11993 17.2298 5.58411 16.6674 5.82 16.0002H7V23.0002C7 23.2654 7.10536 23.5198 7.29289 23.7073C7.48043 23.8949 7.73478 24.0002 8 24.0002H13V28.0002H7.33L5.85 26.8902C6.05661 26.2135 6.01736 25.4855 5.73918 24.8348C5.461 24.1842 4.9618 23.6529 4.32978 23.3347C3.69777 23.0165 2.97362 22.9319 2.2853 23.096C1.59698 23.26 0.988798 23.662 0.56821 24.2311C0.147623 24.8001 -0.058292 25.4995 -0.0131498 26.2056C0.0319924 26.9118 0.325286 27.5793 0.814907 28.0901C1.30453 28.6009 1.95896 28.9223 2.66256 28.9973C3.36616 29.0724 4.07365 28.8963 4.66 28.5002C7.2 30.4002 5.43 30.0002 13 30.0002V34.0002H7C6.56 34.0002 6.51 34.1202 4.66 35.5002C4.10324 35.1304 3.4389 34.957 2.77241 35.0077C2.10592 35.0585 1.47545 35.3303 0.981054 35.7801C0.486655 36.23 0.156641 36.832 0.043382 37.4908C-0.0698774 38.1495 0.0401046 38.8272 0.355876 39.4164C0.671647 40.0055 1.17512 40.4723 1.7864 40.7427C2.39768 41.0131 3.08176 41.0716 3.73008 40.9089C4.3784 40.7462 4.95383 40.3717 5.36506 39.8448C5.77628 39.3178 5.99975 38.6686 6 38.0002C6 36.7202 5.26 37.5602 7.33 36.0002H13V40.0002C7.73 40.0002 7.56 39.8302 7.15 40.4702L3.65 46.0702C2.96009 45.9126 2.23669 46.004 1.60764 46.3282C0.978596 46.6524 0.48441 47.1886 0.212425 47.8419C-0.05956 48.4952 -0.0918321 49.2237 0.121312 49.8985C0.334457 50.5733 0.779295 51.151 1.37721 51.5296C1.97512 51.9081 2.68761 52.0632 3.38875 51.9672C4.08989 51.8713 4.73454 51.5305 5.20877 51.0053C5.68299 50.48 5.95626 49.804 5.98028 49.0967C6.00429 48.3894 5.77751 47.6965 5.34 47.1402L8.55 42.0002H13V46.0002C13 47.3263 13.5268 48.5981 14.4645 49.5358C15.4021 50.4734 16.6739 51.0002 18 51.0002H22V55.0002H15C14.7348 55.0002 14.4804 55.1056 14.2929 55.2931C14.1054 55.4807 14 55.735 14 56.0002V58.1802C13.3328 58.4161 12.7704 58.8803 12.4124 59.4907C12.0543 60.1011 11.9235 60.8185 12.0432 61.516C12.1629 62.2134 12.5253 62.8462 13.0663 63.3023C13.6074 63.7585 14.2923 64.0087 15 64.0087C15.7077 64.0087 16.3926 63.7585 16.9337 63.3023C17.4747 62.8462 17.8371 62.2134 17.9568 61.516C18.0765 60.8185 17.9457 60.1011 17.5876 59.4907C17.2296 58.8803 16.6672 58.4161 16 58.1802V57.0002H23C23.2652 57.0002 23.5196 56.8949 23.7071 56.7073C23.8946 56.5198 24 56.2654 24 56.0002V51.0002H28V56.6702L26.89 58.1502C26.2132 57.9436 25.4852 57.9829 24.8346 58.261C24.184 58.5392 23.6527 59.0384 23.3345 59.6704C23.0163 60.3025 22.9317 61.0266 23.0957 61.7149C23.2598 62.4032 23.6618 63.0114 24.2309 63.432C24.7999 63.8526 25.4993 64.0585 26.2054 64.0134C26.9116 63.9682 27.579 63.6749 28.0899 63.1853C28.6007 62.6957 28.9221 62.0413 28.9971 61.3377C29.0722 60.6341 28.8961 59.9266 28.5 59.3402C30.4 56.8002 30 58.5702 30 51.0002H34V57.0002C34 57.4402 34.12 57.4902 35.5 59.3402C35.1301 59.897 34.9568 60.5613 35.0075 61.2278C35.0582 61.8943 35.3301 62.5248 35.7799 63.0192C36.2297 63.5136 36.8318 63.8436 37.4905 63.9568C38.1493 64.0701 38.827 63.9601 39.4161 63.6443C40.0053 63.3286 40.4721 62.8251 40.7425 62.2138C41.0128 61.6025 41.0714 60.9185 40.9087 60.2701C40.746 59.6218 40.3715 59.0464 39.8446 58.6352C39.3176 58.2239 38.6684 58.0005 38 58.0002C36.72 58.0002 37.56 58.7402 36 56.6702V51.0002H40C40 56.2702 39.83 56.4402 40.47 56.8502L46.07 60.3502C45.9124 61.0401 46.0038 61.7635 46.328 62.3926C46.6522 63.0216 47.1884 63.5158 47.8417 63.7878C48.495 64.0598 49.2234 64.0921 49.8983 63.8789C50.5731 63.6658 51.1508 63.2209 51.5294 62.623C51.9079 62.0251 52.0629 61.3126 51.967 60.6115C51.871 59.9103 51.5303 59.2657 51.005 58.7915C50.4798 58.3172 49.8038 58.044 49.0965 58.0199C48.3892 57.9959 47.6962 58.2227 47.14 58.6602L42 55.4502V51.0002H46C47.3261 51.0002 48.5979 50.4734 49.5355 49.5358C50.4732 48.5981 51 47.3263 51 46.0002V42.0002H55V49.0002C55 49.2654 55.1054 49.5198 55.2929 49.7073C55.4804 49.8949 55.7348 50.0002 56 50.0002H58.18C58.4159 50.6674 58.8801 51.2298 59.4905 51.5879C60.1009 51.9459 60.8182 52.0767 61.5157 51.957C62.2132 51.8373 62.846 51.4749 63.3021 50.9339C63.7582 50.3928 64.0084 49.7079 64.0084 49.0002C64.0084 48.2925 63.7582 47.6076 63.3021 47.0666C62.846 46.5255 62.2132 46.1631 61.5157 46.0434C60.8182 45.9238 60.1009 46.0545 59.4905 46.4126C58.8801 46.7707 58.4159 47.333 58.18 48.0002H57V41.0002C57 40.735 56.8946 40.4807 56.7071 40.2931C56.5196 40.1056 56.2652 40.0002 56 40.0002H51V36.0002H56.67L58.15 37.1102C57.9434 37.787 57.9826 38.515 58.2608 39.1656C58.539 39.8162 59.0382 40.3476 59.6702 40.6658C60.3022 40.984 61.0264 41.0685 61.7147 40.9045C62.403 40.7405 63.0112 40.3384 63.4318 39.7694C63.8524 39.2003 64.0583 38.501 64.0132 37.7948C63.968 37.0887 63.6747 36.4212 63.1851 35.9103C62.6955 35.3995 62.041 35.0782 61.3374 35.0031C60.6338 34.9281 59.9264 35.1041 59.34 35.5002C56.8 33.6002 58.57 34.0002 51 34.0002V30.0002H57ZM61 25.0002C61.2652 25.0002 61.5196 25.1056 61.7071 25.2931C61.8946 25.4807 62 25.735 62 26.0002C62 26.2654 61.8946 26.5198 61.7071 26.7073C61.5196 26.8949 61.2652 27.0002 61 27.0002C60.7348 27.0002 60.4804 26.8949 60.2929 26.7073C60.1054 26.5198 60 26.2654 60 26.0002C60 25.735 60.1054 25.4807 60.2929 25.2931C60.4804 25.1056 60.7348 25.0002 61 25.0002ZM61 14.0002C61.2652 14.0002 61.5196 14.1056 61.7071 14.2931C61.8946 14.4807 62 14.735 62 15.0002C62 15.2654 61.8946 15.5198 61.7071 15.7073C61.5196 15.8949 61.2652 16.0002 61 16.0002C60.7348 16.0002 60.4804 15.8949 60.2929 15.7073C60.1054 15.5198 60 15.2654 60 15.0002C60 14.735 60.1054 14.4807 60.2929 14.2931C60.4804 14.1056 60.7348 14.0002 61 14.0002ZM49 2.00022C49.2652 2.00022 49.5196 2.10558 49.7071 2.29312C49.8946 2.48065 50 2.73501 50 3.00022C50 3.26544 49.8946 3.51979 49.7071 3.70733C49.5196 3.89487 49.2652 4.00022 49 4.00022C48.7348 4.00022 48.4804 3.89487 48.2929 3.70733C48.1054 3.51979 48 3.26544 48 3.00022C48 2.73501 48.1054 2.48065 48.2929 2.29312C48.4804 2.10558 48.7348 2.00022 49 2.00022ZM38 2.00022C38.2652 2.00022 38.5196 2.10558 38.7071 2.29312C38.8946 2.48065 39 2.73501 39 3.00022C39 3.26544 38.8946 3.51979 38.7071 3.70733C38.5196 3.89487 38.2652 4.00022 38 4.00022C37.7348 4.00022 37.4804 3.89487 37.2929 3.70733C37.1054 3.51979 37 3.26544 37 3.00022C37 2.73501 37.1054 2.48065 37.2929 2.29312C37.4804 2.10558 37.7348 2.00022 38 2.00022ZM25 3.00022C25 2.73501 25.1054 2.48065 25.2929 2.29312C25.4804 2.10558 25.7348 2.00022 26 2.00022C26.2652 2.00022 26.5196 2.10558 26.7071 2.29312C26.8946 2.48065 27 2.73501 27 3.00022C27 3.26544 26.8946 3.51979 26.7071 3.70733C26.5196 3.89487 26.2652 4.00022 26 4.00022C25.7348 4.00022 25.4804 3.89487 25.2929 3.70733C25.1054 3.51979 25 3.26544 25 3.00022ZM15 4.00022C14.7348 4.00022 14.4804 3.89487 14.2929 3.70733C14.1054 3.51979 14 3.26544 14 3.00022C14 2.73501 14.1054 2.48065 14.2929 2.29312C14.4804 2.10558 14.7348 2.00022 15 2.00022C15.2652 2.00022 15.5196 2.10558 15.7071 2.29312C15.8946 2.48065 16 2.73501 16 3.00022C16 3.26544 15.8946 3.51979 15.7071 3.70733C15.5196 3.89487 15.2652 4.00022 15 4.00022ZM3 16.0002C2.73478 16.0002 2.48043 15.8949 2.29289 15.7073C2.10536 15.5198 2 15.2654 2 15.0002C2 14.735 2.10536 14.4807 2.29289 14.2931C2.48043 14.1056 2.73478 14.0002 3 14.0002C3.26522 14.0002 3.51957 14.1056 3.70711 14.2931C3.89464 14.4807 4 14.735 4 15.0002C4 15.2654 3.89464 15.5198 3.70711 15.7073C3.51957 15.8949 3.26522 16.0002 3 16.0002ZM2 26.0002C2 25.735 2.10536 25.4807 2.29289 25.2931C2.48043 25.1056 2.73478 25.0002 3 25.0002C3.26522 25.0002 3.51957 25.1056 3.70711 25.2931C3.89464 25.4807 4 25.735 4 26.0002C4 26.2654 3.89464 26.5198 3.70711 26.7073C3.51957 26.8949 3.26522 27.0002 3 27.0002C2.73478 27.0002 2.48043 26.8949 2.29289 26.7073C2.10536 26.5198 2 26.2654 2 26.0002ZM3 39.0002C2.73478 39.0002 2.48043 38.8949 2.29289 38.7073C2.10536 38.5198 2 38.2654 2 38.0002C2 37.735 2.10536 37.4807 2.29289 37.2931C2.48043 37.1056 2.73478 37.0002 3 37.0002C3.26522 37.0002 3.51957 37.1056 3.70711 37.2931C3.89464 37.4807 4 37.735 4 38.0002C4 38.2654 3.89464 38.5198 3.70711 38.7073C3.51957 38.8949 3.26522 39.0002 3 39.0002ZM3 50.0002C2.73478 50.0002 2.48043 49.8949 2.29289 49.7073C2.10536 49.5198 2 49.2654 2 49.0002C2 48.735 2.10536 48.4807 2.29289 48.2931C2.48043 48.1056 2.73478 48.0002 3 48.0002C3.26522 48.0002 3.51957 48.1056 3.70711 48.2931C3.89464 48.4807 4 48.735 4 49.0002C4 49.2654 3.89464 49.5198 3.70711 49.7073C3.51957 49.8949 3.26522 50.0002 3 50.0002ZM15 62.0002C14.7348 62.0002 14.4804 61.8949 14.2929 61.7073C14.1054 61.5198 14 61.2654 14 61.0002C14 60.735 14.1054 60.4807 14.2929 60.2931C14.4804 60.1056 14.7348 60.0002 15 60.0002C15.2652 60.0002 15.5196 60.1056 15.7071 60.2931C15.8946 60.4807 16 60.735 16 61.0002C16 61.2654 15.8946 61.5198 15.7071 61.7073C15.5196 61.8949 15.2652 62.0002 15 62.0002ZM26 62.0002C25.7348 62.0002 25.4804 61.8949 25.2929 61.7073C25.1054 61.5198 25 61.2654 25 61.0002C25 60.735 25.1054 60.4807 25.2929 60.2931C25.4804 60.1056 25.7348 60.0002 26 60.0002C26.2652 60.0002 26.5196 60.1056 26.7071 60.2931C26.8946 60.4807 27 60.735 27 61.0002C27 61.2654 26.8946 61.5198 26.7071 61.7073C26.5196 61.8949 26.2652 62.0002 26 62.0002ZM39 61.0002C39 61.2654 38.8946 61.5198 38.7071 61.7073C38.5196 61.8949 38.2652 62.0002 38 62.0002C37.7348 62.0002 37.4804 61.8949 37.2929 61.7073C37.1054 61.5198 37 61.2654 37 61.0002C37 60.735 37.1054 60.4807 37.2929 60.2931C37.4804 60.1056 37.7348 60.0002 38 60.0002C38.2652 60.0002 38.5196 60.1056 38.7071 60.2931C38.8946 60.4807 39 60.735 39 61.0002ZM49 60.0002C49.2652 60.0002 49.5196 60.1056 49.7071 60.2931C49.8946 60.4807 50 60.735 50 61.0002C50 61.2654 49.8946 61.5198 49.7071 61.7073C49.5196 61.8949 49.2652 62.0002 49 62.0002C48.7348 62.0002 48.4804 61.8949 48.2929 61.7073C48.1054 61.5198 48 61.2654 48 61.0002C48 60.735 48.1054 60.4807 48.2929 60.2931C48.4804 60.1056 48.7348 60.0002 49 60.0002ZM61 48.0002C61.2652 48.0002 61.5196 48.1056 61.7071 48.2931C61.8946 48.4807 62 48.735 62 49.0002C62 49.2654 61.8946 49.5198 61.7071 49.7073C61.5196 49.8949 61.2652 50.0002 61 50.0002C60.7348 50.0002 60.4804 49.8949 60.2929 49.7073C60.1054 49.5198 60 49.2654 60 49.0002C60 48.735 60.1054 48.4807 60.2929 48.2931C60.4804 48.1056 60.7348 48.0002 61 48.0002ZM62 38.0002C62 38.2654 61.8946 38.5198 61.7071 38.7073C61.5196 38.8949 61.2652 39.0002 61 39.0002C60.7348 39.0002 60.4804 38.8949 60.2929 38.7073C60.1054 38.5198 60 38.2654 60 38.0002C60 37.735 60.1054 37.4807 60.2929 37.2931C60.4804 37.1056 60.7348 37.0002 61 37.0002C61.2652 37.0002 61.5196 37.1056 61.7071 37.2931C61.8946 37.4807 62 37.735 62 38.0002ZM49 46.0002C49 46.7959 48.6839 47.5589 48.1213 48.1215C47.5587 48.6842 46.7957 49.0002 46 49.0002H18C17.2044 49.0002 16.4413 48.6842 15.8787 48.1215C15.3161 47.5589 15 46.7959 15 46.0002V18.0002C15 17.2046 15.3161 16.4415 15.8787 15.8789C16.4413 15.3163 17.2044 15.0002 18 15.0002H46C46.7957 15.0002 47.5587 15.3163 48.1213 15.8789C48.6839 16.4415 49 17.2046 49 18.0002V46.0002Z" fill="#63C5F1"/>
<path d="M23.47 39.2302C23.5353 39.3448 23.6227 39.4454 23.727 39.526C23.8314 39.6067 23.9507 39.666 24.078 39.7004C24.2053 39.7348 24.3382 39.7436 24.469 39.7264C24.5998 39.7092 24.7259 39.6664 24.84 39.6002L26.15 38.8402C26.9939 39.5534 27.9593 40.109 29 40.4802V42.0002C29 42.2655 29.1054 42.5198 29.2929 42.7074C29.4804 42.8949 29.7348 43.0002 30 43.0002H34C34.2652 43.0002 34.5196 42.8949 34.7071 42.7074C34.8946 42.5198 35 42.2655 35 42.0002V40.4802C36.0391 40.1121 37.0018 39.5562 37.84 38.8402L39.16 39.6002C39.2741 39.6664 39.4002 39.7092 39.531 39.7264C39.6618 39.7436 39.7947 39.7348 39.922 39.7004C40.0493 39.666 40.1686 39.6067 40.273 39.526C40.3773 39.4454 40.4647 39.3448 40.53 39.2302L42.53 35.7702C42.5961 35.6561 42.639 35.53 42.6562 35.3992C42.6734 35.2685 42.6645 35.1356 42.6301 35.0082C42.5957 34.8809 42.5365 34.7616 42.4558 34.6573C42.3751 34.5529 42.2746 34.4656 42.16 34.4002L40.84 33.6402C41.0502 32.557 41.0502 31.4435 40.84 30.3602L42.16 29.6002C42.2746 29.5349 42.3751 29.4476 42.4558 29.3432C42.5365 29.2389 42.5957 29.1196 42.6301 28.9922C42.6645 28.8649 42.6734 28.732 42.6562 28.6012C42.639 28.4705 42.5961 28.3444 42.53 28.2302L40.53 24.7702C40.4647 24.6557 40.3773 24.5551 40.273 24.4744C40.1686 24.3938 40.0493 24.3345 39.922 24.3001C39.7947 24.2657 39.6618 24.2569 39.531 24.2741C39.4002 24.2912 39.2741 24.3341 39.16 24.4002L37.84 25.1602C37.0018 24.4443 36.0391 23.8884 35 23.5202V22.0002C35 21.735 34.8946 21.4807 34.7071 21.2931C34.5196 21.1056 34.2652 21.0002 34 21.0002H30C29.7348 21.0002 29.4804 21.1056 29.2929 21.2931C29.1054 21.4807 29 21.735 29 22.0002V23.5202C27.9593 23.8915 26.9939 24.447 26.15 25.1602L24.84 24.4002C24.7259 24.3341 24.5998 24.2912 24.469 24.2741C24.3382 24.2569 24.2053 24.2657 24.078 24.3001C23.9507 24.3345 23.8314 24.3938 23.727 24.4744C23.6227 24.5551 23.5353 24.6557 23.47 24.7702C20.76 29.4602 20.61 28.8902 23.16 30.3602C22.9498 31.4435 22.9498 32.557 23.16 33.6402C20.59 35.1202 20.78 34.5602 23.47 39.2302ZM25.26 33.8702C24.9099 32.6482 24.9099 31.3523 25.26 30.1302C25.5 29.2702 24.8 29.0002 23.71 28.3702L24.71 26.6302L25.79 27.2602C27.03 27.9702 27.15 26.0302 30.25 25.2602C31.11 25.0402 31 24.3102 31 23.0302H33V24.2902C33 25.7202 34.76 24.8502 37 27.1302C37.63 27.7702 38.23 27.2802 39.3 26.6602L40.3 28.4002L39.2 29.0002C38.2 29.5502 39 30.3002 39 32.0002C39 33.7002 38.25 34.4502 39.2 35.0002L40.29 35.6302L39.29 37.3702C38.29 36.7702 37.64 36.2402 36.99 36.9002C34.76 39.1802 32.99 38.3102 32.99 39.7402V41.0002H31V39.7402C31.0072 39.5132 30.9368 39.2904 30.8005 39.1086C30.6642 38.9269 30.47 38.7969 30.25 38.7402C27.14 37.9402 27.03 35.9902 25.79 36.7402L24.71 37.3702L23.71 35.6302C24.75 35.0002 25.51 34.7602 25.26 33.8702Z" fill="#63C5F1"/>
</g>
<defs>
<clipPath id="clip0">
<rect width="64" height="64" fill="white" transform="translate(0 0.000244141)"/>
</clipPath>
</defs>
</svg>
